<svg xmlns="http://www.w3.org/2000/svg" viewBox="0 0 64 64">
  <defs>
    <linearGradient id="bg" x1="0" y1="0" x2="1" y2="1">
      <stop offset="0%" stop-color="#10b981"/>
      <stop offset="100%" stop-color="#0ea5e9"/>
    </linearGradient>
    <linearGradient id="gold" x1="0" y1="0" x2="0" y2="1">
      <stop offset="0%" stop-color="#fde68a"/>
      <stop offset="55%" stop-color="#f59e0b"/>
      <stop offset="100%" stop-color="#b45309"/>
    </linearGradient>
  </defs>
  <circle cx="32" cy="32" r="30" fill="url(#bg)"/>
  <!-- trophy -->
  <g fill="url(#gold)">
    <path d="M20 14h24v8c0 8-5 14-12 14s-12-6-12-14z"/>
    <path d="M16 16h4v4c0 3 1 5 3 7-4-1-7-4-7-8zm32 0h-4v4c0 3-1 5-3 7 4-1 7-4 7-8z" opacity="0.9"/>
    <rect x="29.5" y="35" width="5" height="7" rx="1"/>
    <path d="M23 44h18v4H23z"/>
    <rect x="20" y="47" width="24" height="4" rx="1.5"/>
  </g>
  <!-- football on trophy -->
  <circle cx="32" cy="22" r="5.5" fill="#fff"/>
  <path d="M32 18.5l2 1.5-.8 2.4h-2.4L30 20z" fill="#0f172a"/>
</svg>
